/* XPM */
static char * bambam_xpm[] = {
"32 32 250 2",
"  	c None",
". 	c #000000",
"+ 	c #800000",
"@ 	c #008000",
"# 	c #808000",
"$ 	c #000080",
"% 	c #800080",
"& 	c #008080",
"* 	c #C0C0C0",
"= 	c #C0DCC0",
"- 	c #A6CAF0",
"; 	c #000000",
"> 	c #05040A",
", 	c #08052C",
"' 	c #1F2619",
") 	c #1C242B",
"! 	c #281411",
"~ 	c #2D1831",
"{ 	c #302C18",
"] 	c #2D2A31",
"^ 	c #020852",
"/ 	c #010B6D",
"( 	c #040C72",
"_ 	c #142651",
": 	c #082772",
"< 	c #27004A",
"[ 	c #2E2F4E",
"} 	c #283471",
"| 	c #0B5202",
"1 	c #116C02",
"2 	c #037125",
"3 	c #107E3F",
"4 	c #38410F",
"5 	c #3B472E",
"6 	c #1B4279",
"7 	c #394155",
"8 	c #2F4672",
"9 	c #4C1303",
"0 	c #5F3715",
"a 	c #4D2E35",
"b 	c #72040E",
"c 	c #712703",
"d 	c #6E362E",
"e 	c #470047",
"f 	c #47344C",
"g 	c #4B356B",
"h 	c #50471E",
"i 	c #544D33",
"j 	c #64491A",
"k 	c #724B35",
"l 	c #7E6B0F",
"m 	c #706B26",
"n 	c #4E4B50",
"o 	c #4E516D",
"p 	c #596471",
"q 	c #6E514F",
"r 	c #6A5868",
"s 	c #6F6758",
"t 	c #716F70",
"u 	c #000180",
"v 	c #0C2F87",
"w 	c #293489",
"x 	c #392EAA",
"y 	c #15448D",
"z 	c #1E41A1",
"A 	c #0F6EA1",
"B 	c #2F4C8F",
"C 	c #344DA7",
"D 	c #366C95",
"E 	c #3964A0",
"F 	c #3F55C2",
"G 	c #48578D",
"H 	c #4953AC",
"I 	c #4F6892",
"J 	c #526AA4",
"K 	c #655A89",
"L 	c #6C728A",
"M 	c #6376A6",
"N 	c #0D8004",
"O 	c #028A28",
"P 	c #06A62F",
"Q 	c #0A9040",
"R 	c #1D9F5D",
"S 	c #13AD49",
"T 	c #309052",
"U 	c #2DAD4E",
"V 	c #34B461",
"W 	c #0CC42F",
"X 	c #12C845",
"Y 	c #19E357",
"Z 	c #2BCB51",
"` 	c #3BC37B",
" .	c #2BE765",
"..	c #509571",
"+.	c #4AAA7A",
"@.	c #4CB47A",
"#.	c #748675",
"$.	c #69A77A",
"%.	c #47CD73",
"&.	c #2F928A",
"*.	c #3A87A3",
"=.	c #0DD6DA",
"-.	c #4F889B",
";.	c #528BA5",
">.	c #4CB288",
",.	c #75858C",
"'.	c #6E90A9",
").	c #6EAB8A",
"!.	c #77A6AA",
"~.	c #800208",
"{.	c #9E1E33",
"].	c #963A09",
"^.	c #983434",
"/.	c #AE061A",
"(.	c #AE1633",
"_.	c #B83304",
":.	c #B3293D",
"<.	c #800871",
"[.	c #8F2F4F",
"}.	c #8B3345",
"|.	c #A5006D",
"1.	c #A73550",
"2.	c #B03644",
"3.	c #944815",
"4.	c #905430",
"5.	c #847606",
"6.	c #937F11",
"7.	c #946233",
"8.	c #AD4C13",
"9.	c #AD502C",
"0.	c #AD6635",
"a.	c #90564E",
"b.	c #855E6A",
"c.	c #946654",
"d.	c #8E756F",
"e.	c #AA564D",
"f.	c #B35A67",
"g.	c #AB6C55",
"h.	c #AB766A",
"i.	c #C20606",
"j.	c #C21206",
"k.	c #CA1C3D",
"l.	c #C22D0B",
"m.	c #CC2C3F",
"n.	c #D13849",
"o.	c #D33754",
"p.	c #F4304C",
"q.	c #CC4E02",
"r.	c #C35432",
"s.	c #CF6B0D",
"t.	c #CE6F30",
"u.	c #E07E0F",
"v.	c #C94B4F",
"w.	c #C94B57",
"x.	c #CD5B62",
"y.	c #D3654F",
"z.	c #D27050",
"A.	c #C56D75",
"B.	c #867C86",
"C.	c #A37E83",
"D.	c #CA7B87",
"E.	c #F26E84",
"F.	c #E272A5",
"G.	c #938B2E",
"H.	c #928530",
"I.	c #8BA23C",
"J.	c #A88A12",
"K.	c #A89612",
"L.	c #B89C1A",
"M.	c #AA8C30",
"N.	c #AC972D",
"O.	c #B59C29",
"P.	c #B8A819",
"Q.	c #B6A828",
"R.	c #BABF37",
"S.	c #8C9B4F",
"T.	c #918F4B",
"U.	c #8F8779",
"V.	c #98A774",
"W.	c #B0834E",
"X.	c #B2974C",
"Y.	c #B08975",
"Z.	c #B2A651",
"`.	c #ACA76E",
" +	c #A9AB77",
".+	c #CA9011",
"++	c #CF8C2D",
"@+	c #CF982D",
"#+	c #D19F33",
"$+	c #D0A933",
"%+	c #E4AA2F",
"&+	c #CF9452",
"*+	c #D08E6B",
"=+	c #D2AA4B",
"-+	c #D4BF4C",
";+	c #CAAB70",
">+	c #CAB270",
",+	c #E0935D",
"'+	c #E59E78",
")+	c #E5B551",
"!+	c #EEB179",
"~+	c #DECD3C",
"{+	c #CFC771",
"]+	c #E8C94E",
"^+	c #EECB6E",
"/+	c #E5DA65",
"(+	c #858483",
"_+	c #9498A8",
":+	c #95A999",
"<+	c #99ACAA",
"[+	c #AE968C",
"}+	c #A79AA4",
"|+	c #AEA797",
"1+	c #A6A6A6",
"2+	c #9686D4",
"3+	c #98AACC",
"4+	c #B6B9C4",
"5+	c #B5B8E6",
"6+	c #9DC0A6",
"7+	c #B9C4B7",
"8+	c #8DD5C8",
"9+	c #B9C8C7",
"0+	c #BCCDE6",
"a+	c #C5928C",
"b+	c #C89AA6",
"c+	c #CCA897",
"d+	c #C4B7B1",
"e+	c #EDAA85",
"f+	c #C3BCC3",
"g+	c #E0B9CF",
"h+	c #D6C78B",
"i+	c #C9C5B7",
"j+	c #E8DB85",
"k+	c #E2C8B3",
"l+	c #FFE18F",
"m+	c #F0E8A6",
"n+	c #C3C5C2",
"o+	c #C0DCC0",
"p+	c #D0D9E4",
"q+	c #DBE2D9",
"r+	c #D3E3E4",
"s+	c #E5CFD9",
"t+	c #E4D5D0",
"u+	c #E3DBE1",
"v+	c #E3E5D8",
"w+	c #F9F7F1",
"x+	c #FFFBF0",
"y+	c #FFFBF0",
"z+	c #A0A0A4",
"A+	c #808080",
"                                                                ",
"                                                                ",
"                            q+q+q+,                             ",
"                          1+g+u+p+v+                            ",
"                          4+w+p+n+n+                            ",
"                        , %+k+k+k+>+>                           ",
"                          , %+@+@+k                             ",
"                          , )+%+$+c.                            ",
"                      u+n+n+k+Y.U.1+d+n+}+  ,                   ",
"                  > * <+:+|+1+[+(+(+(+1+4+1+/.p.                ",
"                b.q+1+(+(+g.(+q U.i+h.|+z+1+n+f+>               ",
"      , ]+]+i+K f+}+h.c.t 1+q+x+7+(+t g c.Y.z+* L t ,.>         ",
"      /+~+L.i+i |+g.Y.t 1+* 1+x+= }+1+7 o g.z+z+p L d.t         ",
"    > W.n+t o 1+[+a+B.p 7 (+A+x+t p n r r g.h.Y.) i+M.#+H.t     ",
"    t ,.'.t B (+h.Y.Y.r n q |+|+] ] n q g.A.(+i+} , 7+J.-+O.    ",
"  Y.I ;.;.-.: B 1+1+4.d+0.9.8.0.8.9.c+7.4.1+^ : ^ 6 ] 1+n+i+B.  ",
"> *+: I 7 6 m.:.:.A., :+n+[+U.|+`.c+7+:+7+8 / : . > g.8 8 I p > ",
"'.o T./ p+~.i.{./.1., M } / ^ / / 9+Q 2 U Q 6+, / ^ ^ / $+g.G . ",
"M I w / n+{././.9 4+^ 9.^ ^ , , ^ = 2 1  .X 3 1+^ : : Q._.v I > ",
"> B v w 4+1+g.n+1+, s ^ / ^ _ / / t +.V 2 S 3 * ^ ] j.^ : : >   ",
"{ v B v u n+* }+/ : M / 8 _ ^ ^ : ^ 7+2 | T 6+G / } / : : : ,   ",
"  n v y E v z B ,+q.q.q..+.+.+@+i 8 : , 8 _ / / w $ : u : >     ",
"    ! u v u B H / _ w $ ^ / } ^ ^ v v / ^ ^ > ^ / / / : > )     ",
"      ) . $ u u u $ $ / $ / $ $ / / / / $ u w / / : > '         ",
"          . > ) , ^ / / / / / / ^ / ^ / ^ ^ L > . .             ",
"              , . . . , > > > . > ' > , . . > .                 ",
"                        > . . . . . . > > . .                   ",
"                            . .         . . . .                 ",
"                                          > .                   ",
"                                                                ",
"                                                                ",
"                                                                "};
